<svg width="31" height="31" viewBox="0 0 31 31" fill="none" xmlns="http://www.w3.org/2000/svg">
<path d="M16.5902 6.84512C16.59 6.58021 16.676 6.32242 16.8352 6.11073C16.9945 5.89904 17.2184 5.74497 17.473 5.67181C17.7276 5.59865 17.9991 5.61039 18.2464 5.70524C18.4938 5.8001 18.7035 5.97292 18.8439 6.19756L22.122 9.47561C22.2352 9.58891 22.325 9.72341 22.3862 9.87142C22.4475 10.0194 22.479 10.1781 22.4789 10.3382C22.4788 10.4984 22.4472 10.657 22.3859 10.805C22.3245 10.9529 22.2346 11.0874 22.1213 11.2006C22.008 11.3138 21.8735 11.4036 21.7255 11.4649C21.5775 11.5261 21.4189 11.5576 21.2587 11.5576C21.0985 11.5575 20.9399 11.5259 20.792 11.4645C20.644 11.4032 20.5096 11.3133 20.3963 11.2L19.0305 9.83292V19.0402C19.0305 19.3637 18.902 19.6739 18.6733 19.9026C18.4446 20.1313 18.1344 20.2598 17.811 20.2598C17.4875 20.2598 17.1774 20.1313 16.9487 19.9026C16.7199 19.6739 16.5915 19.3637 16.5915 19.0402V6.84512H16.5902ZM14.1902 23.9354C14.1905 24.2003 14.1045 24.4581 13.9452 24.6698C13.786 24.8814 13.5621 25.0355 13.3075 25.1087C13.0529 25.1818 12.7814 25.1701 12.5341 25.0752C12.2867 24.9804 12.077 24.8076 11.9366 24.5829L8.65854 21.3049C8.42987 21.076 8.30147 20.7657 8.30158 20.4422C8.3017 20.1187 8.43032 19.8085 8.65915 19.5799C8.88798 19.3512 9.19827 19.2228 9.52177 19.2229C9.84527 19.223 10.1555 19.3517 10.3841 19.5805L11.75 20.9476V11.7402C11.75 11.4168 11.8785 11.1066 12.1072 10.8779C12.3359 10.6492 12.6461 10.5207 12.9695 10.5207C13.2929 10.5207 13.6031 10.6492 13.8318 10.8779C14.0605 11.1066 14.189 11.4168 14.189 11.7402V23.9354H14.1902Z" fill="white"/>
</svg>
