<svg width="19" height="18" viewBox="0 0 19 18" fill="none" xmlns="http://www.w3.org/2000/svg">
<ellipse cx="9.81111" cy="9" rx="8.9" ry="9" fill="url(#paint0_linear_2_85)"/>
<path d="M14.8274 8.9091L13.7891 5.7591C13.7549 5.65447 13.6889 5.56343 13.6005 5.49896C13.5122 5.43448 13.4059 5.39985 13.2969 5.4H11.7394V6.45H12.9226L13.6152 8.55H11.2203C10.6476 8.55 10.1819 9.02093 10.1819 9.6H9.14361C9.14361 9.02093 8.67792 8.55 8.10528 8.55H5.71036L6.40293 6.45H7.58611V5.4H6.02861C5.91966 5.39993 5.81345 5.43459 5.72509 5.49905C5.63673 5.56352 5.57072 5.65452 5.53644 5.7591L4.49811 8.9091L4.50434 8.9112C4.48401 8.96346 4.47277 9.01887 4.47111 9.075V11.175C4.47111 12.0434 5.16991 12.75 6.02861 12.75H7.58611C8.44481 12.75 9.14361 12.0434 9.14361 11.175V10.65H10.1819V11.175C10.1819 12.0434 10.8807 12.75 11.7394 12.75H13.2969C14.1556 12.75 14.8544 12.0434 14.8544 11.175V9.075C14.8526 9.01877 14.8416 8.96323 14.8217 8.91068L14.8274 8.9091ZM8.10528 11.175C8.10528 11.4643 7.87269 11.7 7.58611 11.7H6.02861C5.74203 11.7 5.50944 11.4643 5.50944 11.175V9.6H8.10528V11.175ZM13.8161 11.175C13.8161 11.4643 13.5835 11.7 13.2969 11.7H11.7394C11.4529 11.7 11.2203 11.4643 11.2203 11.175V9.6H13.8161V11.175Z" fill="white"/>
<defs>
<linearGradient id="paint0_linear_2_85" x1="0.91111" y1="9" x2="18.7111" y2="9" gradientUnits="userSpaceOnUse">
<stop stop-color="#2FBF92"/>
<stop offset="1" stop-color="#4287F4"/>
</linearGradient>
</defs>
</svg>
